<svg xmlns="http://www.w3.org/2000/svg" xmlns:xlink="http://www.w3.org/1999/xlink" width="110" zoomAndPan="magnify" viewBox="0 0 82.5 30.000001" height="40" preserveAspectRatio="xMidYMid meet" version="1.0"><defs><g/><clipPath id="7a7e1709f0"><path d="M 71 10 L 80.925781 10 L 80.925781 22 L 71 22 Z M 71 10 " clip-rule="nonzero"/></clipPath></defs><g fill="#000000" fill-opacity="1"><g transform="translate(1.088708, 20.921459)"><g><path d="M 0.921875 -0.453125 L 0.921875 -15.40625 C 2.296875 -15.625 3.507812 -15.734375 4.5625 -15.734375 C 6.425781 -15.734375 7.722656 -15.34375 8.453125 -14.5625 C 9.179688 -13.78125 9.546875 -12.554688 9.546875 -10.890625 C 9.546875 -8.929688 9.054688 -7.585938 8.078125 -6.859375 C 7.429688 -6.398438 6.800781 -6.113281 6.1875 -6 C 5.394531 -5.875 4.492188 -5.8125 3.484375 -5.8125 L 3.484375 -0.46875 C 3.484375 -0.207031 3.46875 -0.0351562 3.4375 0.046875 C 3.394531 0.234375 3.132812 0.328125 2.65625 0.328125 C 1.5 0.328125 0.921875 0.0664062 0.921875 -0.453125 Z M 3.546875 -8.671875 C 3.597656 -8.648438 3.640625 -8.632812 3.671875 -8.625 C 3.710938 -8.625 3.867188 -8.625 4.140625 -8.625 C 4.421875 -8.625 4.675781 -8.628906 4.90625 -8.640625 C 5.144531 -8.660156 5.394531 -8.707031 5.65625 -8.78125 C 5.925781 -8.851562 6.117188 -8.972656 6.234375 -9.140625 C 6.472656 -9.546875 6.59375 -10.109375 6.59375 -10.828125 C 6.59375 -11.554688 6.484375 -12.148438 6.265625 -12.609375 C 6.046875 -13.066406 5.816406 -13.296875 5.578125 -13.296875 C 4.585938 -13.296875 3.988281 -13.273438 3.78125 -13.234375 C 3.582031 -13.191406 3.484375 -13.054688 3.484375 -12.828125 L 3.484375 -8.9375 C 3.484375 -8.78125 3.503906 -8.691406 3.546875 -8.671875 Z M 3.546875 -8.671875 "/></g></g></g><g fill="#000000" fill-opacity="1"><g transform="translate(10.862431, 20.921459)"><g><path d="M 0.765625 -5.125 C 0.765625 -6.613281 0.890625 -7.738281 1.140625 -8.5 C 1.398438 -9.257812 1.8125 -9.78125 2.375 -10.0625 C 2.9375 -10.34375 3.765625 -10.484375 4.859375 -10.484375 C 5.953125 -10.484375 6.773438 -10.34375 7.328125 -10.0625 C 7.890625 -9.78125 8.300781 -9.257812 8.5625 -8.5 C 8.820312 -7.738281 8.953125 -6.613281 8.953125 -5.125 C 8.953125 -3.070312 8.65625 -1.648438 8.0625 -0.859375 C 7.476562 -0.0664062 6.40625 0.328125 4.84375 0.328125 C 3.289062 0.328125 2.222656 -0.0664062 1.640625 -0.859375 C 1.054688 -1.648438 0.765625 -3.070312 0.765625 -5.125 Z M 3.546875 -5.125 C 3.546875 -2.832031 3.765625 -1.6875 4.203125 -1.6875 C 4.796875 -1.6875 5.238281 -1.78125 5.53125 -1.96875 C 5.675781 -2.070312 5.78125 -2.269531 5.84375 -2.5625 C 5.945312 -3.132812 6 -3.988281 6 -5.125 C 6 -7.382812 5.78125 -8.515625 5.34375 -8.515625 C 4.53125 -8.515625 4.023438 -8.328125 3.828125 -7.953125 C 3.640625 -7.578125 3.546875 -6.632812 3.546875 -5.125 Z M 3.546875 -5.125 "/></g></g></g><g fill="#000000" fill-opacity="1"><g transform="translate(20.574679, 20.921459)"><g><path d="M 3.3125 -9.34375 C 4.4375 -10.101562 5.175781 -10.484375 5.53125 -10.484375 C 5.894531 -10.484375 6.222656 -10.414062 6.515625 -10.28125 C 6.816406 -10.144531 7.035156 -10.007812 7.171875 -9.875 L 7.359375 -9.6875 C 7.148438 -8.8125 6.988281 -8.265625 6.875 -8.046875 C 6.769531 -7.828125 6.625 -7.71875 6.4375 -7.71875 C 6.257812 -7.71875 6.023438 -7.789062 5.734375 -7.9375 C 5.453125 -8.09375 5.191406 -8.171875 4.953125 -8.171875 C 4.722656 -8.171875 4.257812 -7.957031 3.5625 -7.53125 L 3.5625 0 C 3.5625 0.0820312 3.546875 0.132812 3.515625 0.15625 C 3.460938 0.269531 3.210938 0.328125 2.765625 0.328125 C 2.316406 0.328125 1.894531 0.289062 1.5 0.21875 C 1.113281 0.15625 0.921875 0.0820312 0.921875 0 L 0.921875 -10.15625 C 0.921875 -10.375 1.226562 -10.484375 1.84375 -10.484375 C 2.457031 -10.484375 2.8125 -10.375 2.90625 -10.15625 L 2.90625 -10.125 Z M 3.3125 -9.34375 "/></g></g></g><g fill="#000000" fill-opacity="1"><g transform="translate(28.114995, 20.921459)"><g><path d="M 1.90625 -8.515625 L 0.265625 -8.515625 C 0.0976562 -8.515625 0.00390625 -8.550781 -0.015625 -8.625 C -0.0351562 -8.707031 -0.046875 -8.796875 -0.046875 -8.890625 C -0.046875 -9.472656 0.0546875 -9.785156 0.265625 -9.828125 L 1.90625 -10.15625 L 3.046875 -12.46875 C 3.210938 -12.675781 3.53125 -12.78125 4 -12.78125 C 4.113281 -12.78125 4.222656 -12.535156 4.328125 -12.046875 C 4.441406 -11.554688 4.5625 -10.925781 4.6875 -10.15625 L 6.65625 -10.15625 C 6.875 -10.15625 6.984375 -9.878906 6.984375 -9.328125 C 6.984375 -8.785156 6.875 -8.515625 6.65625 -8.515625 L 4.671875 -8.515625 L 4.671875 -2 L 5 0.3125 L 5 0.328125 C 5.007812 0.410156 5.007812 0.460938 5 0.484375 C 4.925781 0.597656 4.582031 0.65625 3.96875 0.65625 C 3.351562 0.65625 2.988281 0.53125 2.875 0.28125 L 1.90625 -1.65625 Z M 1.90625 -8.515625 "/></g></g></g><g fill="#000000" fill-opacity="1"><g transform="translate(35.02012, 20.921459)"><g><path d="M 0.765625 -5.125 C 0.765625 -6.613281 0.890625 -7.738281 1.140625 -8.5 C 1.398438 -9.257812 1.8125 -9.78125 2.375 -10.0625 C 2.9375 -10.34375 3.765625 -10.484375 4.859375 -10.484375 C 5.953125 -10.484375 6.773438 -10.34375 7.328125 -10.0625 C 7.890625 -9.78125 8.300781 -9.257812 8.5625 -8.5 C 8.820312 -7.738281 8.953125 -6.613281 8.953125 -5.125 C 8.953125 -3.070312 8.65625 -1.648438 8.0625 -0.859375 C 7.476562 -0.0664062 6.40625 0.328125 4.84375 0.328125 C 3.289062 0.328125 2.222656 -0.0664062 1.640625 -0.859375 C 1.054688 -1.648438 0.765625 -3.070312 0.765625 -5.125 Z M 3.546875 -5.125 C 3.546875 -2.832031 3.765625 -1.6875 4.203125 -1.6875 C 4.796875 -1.6875 5.238281 -1.78125 5.53125 -1.96875 C 5.675781 -2.070312 5.78125 -2.269531 5.84375 -2.5625 C 5.945312 -3.132812 6 -3.988281 6 -5.125 C 6 -7.382812 5.78125 -8.515625 5.34375 -8.515625 C 4.53125 -8.515625 4.023438 -8.328125 3.828125 -7.953125 C 3.640625 -7.578125 3.546875 -6.632812 3.546875 -5.125 Z M 3.546875 -5.125 "/></g></g></g><g fill="#000000" fill-opacity="1"><g transform="translate(44.732368, 20.921459)"><g><path d="M 7.515625 -13.390625 C 7.117188 -13.566406 6.640625 -13.65625 6.078125 -13.65625 C 5.523438 -13.65625 5.164062 -13.394531 5 -12.875 C 4.832031 -12.363281 4.75 -11.457031 4.75 -10.15625 L 6.71875 -10.15625 C 6.9375 -10.15625 7.046875 -9.878906 7.046875 -9.328125 C 7.046875 -8.785156 6.9375 -8.515625 6.71875 -8.515625 L 4.921875 -8.515625 L 4.921875 4.59375 C 4.921875 4.675781 4.90625 4.726562 4.875 4.75 C 4.820312 4.863281 4.566406 4.921875 4.109375 4.921875 C 3.648438 4.921875 3.1875 4.882812 2.71875 4.8125 C 2.257812 4.75 2.03125 4.675781 2.03125 4.59375 L 2.03125 -8.515625 L 0.390625 -8.515625 C 0.222656 -8.515625 0.128906 -8.550781 0.109375 -8.625 C 0.0859375 -8.707031 0.078125 -8.796875 0.078125 -8.890625 C 0.078125 -9.472656 0.179688 -9.785156 0.390625 -9.828125 L 2.03125 -10.15625 C 2.03125 -12.351562 2.316406 -13.832031 2.890625 -14.59375 C 3.472656 -15.351562 4.597656 -15.734375 6.265625 -15.734375 C 7.347656 -15.734375 8.195312 -15.5 8.8125 -15.03125 L 8.828125 -15.03125 C 8.953125 -14.96875 9.015625 -14.847656 9.015625 -14.671875 C 9.015625 -14.503906 8.984375 -14.3125 8.921875 -14.09375 C 8.867188 -13.875 8.804688 -13.675781 8.734375 -13.5 C 8.660156 -13.320312 8.585938 -13.195312 8.515625 -13.125 C 8.453125 -13.0625 8.394531 -13.035156 8.34375 -13.046875 C 8.300781 -13.054688 8.28125 -13.070312 8.28125 -13.09375 Z M 7.515625 -13.390625 "/></g></g></g><g fill="#000000" fill-opacity="1"><g transform="translate(52.293163, 20.921459)"><g><path d="M 0.765625 -5.125 C 0.765625 -6.613281 0.890625 -7.738281 1.140625 -8.5 C 1.398438 -9.257812 1.8125 -9.78125 2.375 -10.0625 C 2.9375 -10.34375 3.765625 -10.484375 4.859375 -10.484375 C 5.953125 -10.484375 6.773438 -10.34375 7.328125 -10.0625 C 7.890625 -9.78125 8.300781 -9.257812 8.5625 -8.5 C 8.820312 -7.738281 8.953125 -6.613281 8.953125 -5.125 C 8.953125 -3.070312 8.65625 -1.648438 8.0625 -0.859375 C 7.476562 -0.0664062 6.40625 0.328125 4.84375 0.328125 C 3.289062 0.328125 2.222656 -0.0664062 1.640625 -0.859375 C 1.054688 -1.648438 0.765625 -3.070312 0.765625 -5.125 Z M 3.546875 -5.125 C 3.546875 -2.832031 3.765625 -1.6875 4.203125 -1.6875 C 4.796875 -1.6875 5.238281 -1.78125 5.53125 -1.96875 C 5.675781 -2.070312 5.78125 -2.269531 5.84375 -2.5625 C 5.945312 -3.132812 6 -3.988281 6 -5.125 C 6 -7.382812 5.78125 -8.515625 5.34375 -8.515625 C 4.53125 -8.515625 4.023438 -8.328125 3.828125 -7.953125 C 3.640625 -7.578125 3.546875 -6.632812 3.546875 -5.125 Z M 3.546875 -5.125 "/></g></g></g><g fill="#000000" fill-opacity="1"><g transform="translate(62.00541, 20.921459)"><g><path d="M 3.6875 0 C 3.6875 0.0820312 3.671875 0.132812 3.640625 0.15625 C 3.585938 0.269531 3.335938 0.328125 2.890625 0.328125 C 2.441406 0.328125 2 0.289062 1.5625 0.21875 C 1.132812 0.15625 0.921875 0.0820312 0.921875 0 L 0.921875 -15.40625 C 0.921875 -15.625 1.160156 -15.734375 1.640625 -15.734375 C 2.117188 -15.734375 2.515625 -15.703125 2.828125 -15.640625 C 3.140625 -15.578125 3.300781 -15.5 3.3125 -15.40625 L 3.6875 -8.828125 Z M 3.6875 0 "/></g></g></g><g fill="#000000" fill-opacity="1"><g transform="translate(66.554178, 20.921459)"><g><path d="M 0.96875 0 L 0.96875 -10.15625 C 0.96875 -10.375 1.210938 -10.484375 1.703125 -10.484375 C 2.191406 -10.484375 2.65625 -10.445312 3.09375 -10.375 C 3.53125 -10.3125 3.75 -10.238281 3.75 -10.15625 L 3.75 0 C 3.75 0.0820312 3.742188 0.132812 3.734375 0.15625 C 3.660156 0.269531 3.398438 0.328125 2.953125 0.328125 C 2.503906 0.328125 2.0625 0.289062 1.625 0.21875 C 1.1875 0.15625 0.96875 0.0820312 0.96875 0 Z M 2.234375 -12.78125 C 1.253906 -12.78125 0.765625 -13.269531 0.765625 -14.25 C 0.765625 -15.238281 1.253906 -15.734375 2.234375 -15.734375 C 3.210938 -15.734375 3.703125 -15.238281 3.703125 -14.25 C 3.703125 -13.269531 3.210938 -12.78125 2.234375 -12.78125 Z M 2.234375 -12.78125 "/></g></g></g><g clip-path="url(#7a7e1709f0)"><g fill="#000000" fill-opacity="1"><g transform="translate(71.205398, 20.921459)"><g><path d="M 0.765625 -5.125 C 0.765625 -6.613281 0.890625 -7.738281 1.140625 -8.5 C 1.398438 -9.257812 1.8125 -9.78125 2.375 -10.0625 C 2.9375 -10.34375 3.765625 -10.484375 4.859375 -10.484375 C 5.953125 -10.484375 6.773438 -10.34375 7.328125 -10.0625 C 7.890625 -9.78125 8.300781 -9.257812 8.5625 -8.5 C 8.820312 -7.738281 8.953125 -6.613281 8.953125 -5.125 C 8.953125 -3.070312 8.65625 -1.648438 8.0625 -0.859375 C 7.476562 -0.0664062 6.40625 0.328125 4.84375 0.328125 C 3.289062 0.328125 2.222656 -0.0664062 1.640625 -0.859375 C 1.054688 -1.648438 0.765625 -3.070312 0.765625 -5.125 Z M 3.546875 -5.125 C 3.546875 -2.832031 3.765625 -1.6875 4.203125 -1.6875 C 4.796875 -1.6875 5.238281 -1.78125 5.53125 -1.96875 C 5.675781 -2.070312 5.78125 -2.269531 5.84375 -2.5625 C 5.945312 -3.132812 6 -3.988281 6 -5.125 C 6 -7.382812 5.78125 -8.515625 5.34375 -8.515625 C 4.53125 -8.515625 4.023438 -8.328125 3.828125 -7.953125 C 3.640625 -7.578125 3.546875 -6.632812 3.546875 -5.125 Z M 3.546875 -5.125 "/></g></g></g></g></svg>